<svg width="12" height="12" viewBox="0 0 12 12" fill="none" xmlns="http://www.w3.org/2000/svg">
<g clip-path="url(#clip0_121_264)">
<path d="M11.9883 3.52803C11.9602 2.89043 11.8571 2.45208 11.7094 2.07224C11.557 1.66906 11.3226 1.30809 11.0155 1.00801C10.7154 0.703262 10.352 0.466461 9.95351 0.316468C9.57148 0.168765 9.13542 0.0656561 8.49781 0.0375439C7.85544 0.00705093 7.65151 0 6.02229 0C4.39307 0 4.18914 0.00705093 3.54915 0.0351631C2.91154 0.0632753 2.4732 0.166475 2.09345 0.314087C1.69018 0.466461 1.3292 0.700882 1.02913 1.00801C0.72438 1.30809 0.48767 1.67144 0.337586 2.06995C0.189883 2.45208 0.0867743 2.88805 0.0586621 3.52565C0.0281691 4.16802 0.0211182 4.37195 0.0211182 6.00117C0.0211182 7.6304 0.0281691 7.83432 0.0562813 8.47431C0.0843935 9.11192 0.187594 9.55027 0.335297 9.9301C0.48767 10.3333 0.72438 10.6943 1.02913 10.9943C1.3292 11.2991 1.69256 11.5359 2.09107 11.6859C2.4732 11.8336 2.90916 11.9367 3.54686 11.9648C4.18676 11.993 4.39078 12 6.02 12C7.64923 12 7.85315 11.993 8.49314 11.9648C9.13075 11.9367 9.56909 11.8336 9.94884 11.6859C10.7553 11.3741 11.3929 10.7365 11.7047 9.9301C11.8523 9.54798 11.9555 9.11192 11.9836 8.47431C12.0117 7.83432 12.0188 7.6304 12.0188 6.00117C12.0188 4.37195 12.0164 4.16802 11.9883 3.52803ZM10.9077 8.42743C10.8819 9.01348 10.7834 9.32995 10.7014 9.54093C10.4997 10.0637 10.0848 10.4786 9.56204 10.6802C9.35107 10.7623 9.03231 10.8607 8.44855 10.8865C7.81561 10.9147 7.62578 10.9216 6.02467 10.9216C4.42356 10.9216 4.23135 10.9147 3.60071 10.8865C3.01465 10.8607 2.69819 10.7623 2.48721 10.6802C2.22705 10.5841 1.99025 10.4317 1.79805 10.2325C1.59879 10.0379 1.44641 9.80346 1.35027 9.54331C1.26822 9.33233 1.16978 9.01348 1.14405 8.42981C1.11584 7.79687 1.10889 7.60696 1.10889 6.00584C1.10889 4.40473 1.11584 4.21252 1.14405 3.58197C1.16978 2.99592 1.26822 2.67945 1.35027 2.46847C1.44641 2.20823 1.59879 1.97152 1.80043 1.77922C1.99492 1.57996 2.22934 1.42759 2.48959 1.33153C2.70057 1.24948 3.01941 1.15104 3.60309 1.12522C4.23602 1.09711 4.42594 1.09006 6.02696 1.09006C7.63045 1.09006 7.82028 1.09711 8.45093 1.12522C9.03698 1.15104 9.35345 1.24948 9.56442 1.33153C9.82458 1.42759 10.0614 1.57996 10.2536 1.77922C10.4528 1.9738 10.6052 2.20823 10.7014 2.46847C10.7834 2.67945 10.8819 2.99821 10.9077 3.58197C10.9358 4.2149 10.9428 4.40473 10.9428 6.00584C10.9428 7.60696 10.9358 7.79449 10.9077 8.42743Z" fill="#FD853A"/>
<path d="M6.02221 2.91846C4.32037 2.91846 2.93958 4.29916 2.93958 6.00109C2.93958 7.70302 4.32037 9.08372 6.02221 9.08372C7.72414 9.08372 9.10484 7.70302 9.10484 6.00109C9.10484 4.29916 7.72414 2.91846 6.02221 2.91846ZM6.02221 8.00072C4.91814 8.00072 4.02258 7.10525 4.02258 6.00109C4.02258 4.89693 4.91814 4.00146 6.02221 4.00146C7.12637 4.00146 8.02184 4.89693 8.02184 6.00109C8.02184 7.10525 7.12637 8.00072 6.02221 8.00072Z" fill="#FD853A"/>
<path d="M9.94648 2.7968C9.94648 3.19422 9.62424 3.51646 9.22673 3.51646C8.82932 3.51646 8.50708 3.19422 8.50708 2.7968C8.50708 2.39929 8.82932 2.07715 9.22673 2.07715C9.62424 2.07715 9.94648 2.39929 9.94648 2.7968Z" fill="#FD853A"/>
</g>
<defs>
<clipPath id="clip0_121_264">
<rect width="12" height="12" fill="white"/>
</clipPath>
</defs>
</svg>
