<svg width="12" height="12" viewBox="0 0 12 12" fill="none" xmlns="http://www.w3.org/2000/svg">
<g clip-path="url(#clip0_121_268)">
<path d="M9 12H1V0H3V1H2V11H8V8H9V12Z" fill="#FD853A"/>
<path d="M4.5 9H5.5V10H4.5V9Z" fill="#FD853A"/>
<path d="M6.65 8H5.5V6.744C4.79956 6.52721 4.18331 6.09909 3.73574 5.51832C3.28816 4.93755 3.03118 4.23256 3 3.5C3 1.57 4.7945 0 7 0C9.2055 0 11 1.57 11 3.5C11 5.143 9.705 6.55 7.8935 6.9095C7.56633 7.29126 7.19142 7.62937 6.778 7.9155L6.65 8ZM7 1C5.3455 1 4 2.1215 4 3.5C4.04075 4.07676 4.27111 4.62385 4.65519 5.05605C5.03928 5.48824 5.55552 5.78128 6.1235 5.8895L6.5 5.9855V6.875C6.76742 6.66397 7.00833 6.42137 7.2175 6.1525L7.34 5.9875L7.543 5.9565C8.967 5.738 10 4.705 10 3.5C10 2.1215 8.6545 1 7 1Z" fill="#FD853A"/>
</g>
<defs>
<clipPath id="clip0_121_268">
<rect width="12" height="12" fill="white"/>
</clipPath>
</defs>
</svg>
